# xmcd
#
# Track frame offsets: 
#        150
#        13192
#        29796
#        46430
#        75874
#        105272
#        114224
#        123247
#        125621
#        145582
#        163534
#        181720
#        199906
#        217982
#        240431
#        262824
#        285216
#        307533
#
# Disc length: 4455 seconds
#
# Revision: 0
# Processed by: cddbd v1.5.2PL0 Copyright (c) Steve Scherf et al.
# Submitted via: ExactAudioCopy v0.95b3
#
DISCID=d7116512
DTITLE=Jimi Hendrix  - Ladyland Sessions1 May 67-January 68 (ATM 235) 
DTITLE=Disc 2
DYEAR=1900
DGENRE=
TTITLE0=Cat Talkin' To Me
TTITLE1=So Much
TTITLE2=So Much
TTITLE3=Ex-Art Student
TTITLE4=Ex-Art Student
TTITLE5=Oh To Be A Child
TTITLE6=Oh To Be A Child
TTITLE7=All Along The Watchtower
TTITLE8=All Along The Watchtower
TTITLE9=All Along The Watchtower
TTITLE10=All Along The Watchtower
TTITLE11=All Along The Watchtower
TTITLE12=All Along The Watchtower
TTITLE13=Tax Free
TTITLE14=Tax Free
TTITLE15=Tax Free
TTITLE16=Tax Free
TTITLE17=Driving South_Sgt Pepper
EXTD=
EXTT0=
EXTT1=
EXTT2=
EXTT3=
EXTT4=
EXTT5=
EXTT6=
EXTT7=
EXTT8=
EXTT9=
EXTT10=
EXTT11=
EXTT12=
EXTT13=
EXTT14=
EXTT15=
EXTT16=
EXTT17=
PLAYORDER=
